<svg width="88" height="15" viewBox="0 0 88 15" fill="none" xmlns="http://www.w3.org/2000/svg">
<path d="M5.02 10.58V8.12H7.46V6.46H5.02V4.02H3.36V6.46H0.9V8.12H3.36V10.58H5.02ZM14.9995 14L16.2795 10.62H21.9395L23.2195 14H25.6995L20.4595 0.6H17.8595L12.6195 14H14.9995ZM18.3995 5.04L19.1195 2.62L19.8395 5.04L21.1995 8.66H17.0195L18.3995 5.04ZM29.9116 14.22C31.8516 14.22 32.6716 12.92 32.9916 11.42V14H35.2316V0.6H32.9916V6.88C32.6716 5.36 31.8116 4.06 29.8716 4.06C27.5116 4.06 25.9916 6 25.9916 9.14C25.9916 12.28 27.5116 14.22 29.9116 14.22ZM28.2916 9.14C28.2916 6.96 29.3516 5.88 30.7516 5.88C32.3316 5.88 32.9916 6.94 32.9916 8.54V9.76C32.9916 11.36 32.3316 12.4 30.7716 12.4C29.3516 12.4 28.2916 11.34 28.2916 9.14ZM40.9663 14.22C42.9063 14.22 43.7263 12.92 44.0463 11.42V14H46.2863V0.6H44.0463V6.88C43.7263 5.36 42.8663 4.06 40.9263 4.06C38.5663 4.06 37.0463 6 37.0463 9.14C37.0463 12.28 38.5663 14.22 40.9663 14.22ZM39.3462 9.14C39.3462 6.96 40.4063 5.88 41.8063 5.88C43.3863 5.88 44.0463 6.94 44.0463 8.54V9.76C44.0463 11.36 43.3863 12.4 41.8263 12.4C40.4063 12.4 39.3462 11.34 39.3462 9.14ZM55.0411 14V8.54C55.0411 6.94 55.6011 5.88 57.2411 5.88C58.7411 5.88 59.1411 6.7 59.1411 7.9V14H61.4011V7.22C61.4011 5.2 60.2411 4.06 58.3411 4.06C56.4011 4.06 55.4011 5.38 55.0411 6.92V4.26H52.8011V14H55.0411ZM67.9805 14.2C70.1405 14.2 71.4605 13.22 72.2005 12.1L70.8205 10.66C70.4605 11.48 69.7005 12.36 68.0005 12.36C66.4605 12.36 65.4405 11.42 65.3205 9.68H72.2805C72.3205 9.48 72.3605 9.06 72.3605 8.7C72.3605 6 70.7405 4.06 67.8205 4.06C65.0805 4.06 63.1805 6.08 63.1805 9.14C63.1805 12.18 65.0805 14.2 67.9805 14.2ZM67.8205 5.86C69.3005 5.86 70.1805 6.7 70.3405 8.24H65.3405C65.5205 6.66 66.4405 5.86 67.8205 5.86ZM78.1963 14L79.5563 8.94L80.1963 5.92L80.8163 8.94L82.1963 14H85.0563L87.5563 4.26H85.0563L84.0363 9.74L83.6163 12.48L83.0163 9.74L81.5163 4.26H78.8563L77.3763 9.74L76.7563 12.48L76.3363 9.74L75.3363 4.26H72.8363L75.3163 14H78.1963Z" fill="black" fill-opacity="0.6"/>
</svg>
