<svg width="99" height="15" viewBox="0 0 99 15" fill="none" xmlns="http://www.w3.org/2000/svg">
<path d="M5.37982 14C9.53982 14 11.7598 11.44 11.7598 7.29998C11.7598 3.15998 9.51982 0.599976 5.37982 0.599976H0.319824V14H5.37982ZM5.09982 2.59997C7.87983 2.59997 9.39983 3.93998 9.39983 7.29998C9.39983 10.66 7.87983 12 5.11982 12H2.57982V2.59997H5.09982Z" fill="#FF4D00"/>
<path d="M18.2108 14.2C20.3708 14.2 21.6908 13.22 22.4308 12.1L21.0508 10.66C20.6908 11.48 19.9308 12.36 18.2308 12.36C16.6908 12.36 15.6708 11.42 15.5508 9.67998H22.5108C22.5508 9.47998 22.5908 9.05998 22.5908 8.69998C22.5908 5.99998 20.9708 4.05998 18.0508 4.05998C15.3108 4.05998 13.4108 6.07998 13.4108 9.13998C13.4108 12.18 15.3108 14.2 18.2108 14.2ZM18.0508 5.85998C19.5308 5.85998 20.4108 6.69998 20.5708 8.23998H15.5708C15.7508 6.65998 16.6708 5.85998 18.0508 5.85998Z" fill="#FF4D00"/>
<path d="M26.8339 14V0.599976H24.5939V14H26.8339Z" fill="#FF4D00"/>
<path d="M33.5233 14.2C35.6833 14.2 37.0033 13.22 37.7433 12.1L36.3633 10.66C36.0033 11.48 35.2433 12.36 33.5433 12.36C32.0033 12.36 30.9833 11.42 30.8633 9.67998H37.8233C37.8633 9.47998 37.9033 9.05998 37.9033 8.69998C37.9033 5.99998 36.2833 4.05998 33.3633 4.05998C30.6233 4.05998 28.7233 6.07998 28.7233 9.13998C28.7233 12.18 30.6233 14.2 33.5233 14.2ZM33.3633 5.85998C34.8433 5.85998 35.7233 6.69998 35.8833 8.23998H30.8833C31.0633 6.65998 31.9833 5.85998 33.3633 5.85998Z" fill="#FF4D00"/>
<path d="M43.2115 14.22C44.6315 14.22 45.5915 13.56 46.0115 12.94L45.3115 10.94C45.0315 11.5 44.4715 12.12 43.7115 12.12C43.0515 12.12 42.5515 11.86 42.5515 10.8V5.99998H45.5315V4.25998H42.5515V1.65998L40.3115 3.07998V4.25998H38.7915V5.99998H40.3115V11.34C40.3115 13.06 41.3715 14.22 43.2115 14.22Z" fill="#FF4D00"/>
<path d="M51.199 14.2C53.359 14.2 54.679 13.22 55.419 12.1L54.039 10.66C53.679 11.48 52.919 12.36 51.219 12.36C49.679 12.36 48.659 11.42 48.539 9.67998H55.499C55.539 9.47998 55.579 9.05998 55.579 8.69998C55.579 5.99998 53.959 4.05998 51.039 4.05998C48.299 4.05998 46.399 6.07998 46.399 9.13998C46.399 12.18 48.299 14.2 51.199 14.2ZM51.039 5.85998C52.519 5.85998 53.399 6.69998 53.559 8.23998H48.559C48.739 6.65998 49.659 5.85998 51.039 5.85998Z" fill="#FF4D00"/>
<path d="M63.9823 2.87997V0.599976H61.7423V2.87997H63.9823ZM63.9823 14V4.25998H61.7423V14H63.9823Z" fill="#FF4D00"/>
<path d="M69.8717 14.22C71.2917 14.22 72.2517 13.56 72.6717 12.94L71.9717 10.94C71.6917 11.5 71.1317 12.12 70.3717 12.12C69.7117 12.12 69.2117 11.86 69.2117 10.8V5.99998H72.1917V4.25998H69.2117V1.65998L66.9717 3.07998V4.25998H65.4517V5.99998H66.9717V11.34C66.9717 13.06 68.0317 14.22 69.8717 14.22Z" fill="#FF4D00"/>
<path d="M77.8592 14.2C80.0192 14.2 81.3392 13.22 82.0792 12.1L80.6992 10.66C80.3392 11.48 79.5792 12.36 77.8792 12.36C76.3392 12.36 75.3192 11.42 75.1992 9.67998H82.1592C82.1992 9.47998 82.2392 9.05998 82.2392 8.69998C82.2392 5.99998 80.6192 4.05998 77.6992 4.05998C74.9592 4.05998 73.0592 6.07998 73.0592 9.13998C73.0592 12.18 74.9592 14.2 77.8592 14.2ZM77.6992 5.85998C79.1792 5.85998 80.0592 6.69998 80.2192 8.23998H75.2192C75.3992 6.65998 76.3192 5.85998 77.6992 5.85998Z" fill="#FF4D00"/>
<path d="M86.4433 14V8.53998C86.4433 6.93998 87.0033 5.87998 88.3233 5.87998C89.6433 5.87998 90.2033 6.55998 90.2033 7.89998V14H92.4433V8.53998C92.4433 6.93998 93.0033 5.87998 94.3233 5.87998C95.6433 5.87998 96.2033 6.55998 96.2033 7.89998V14H98.4433V7.21998C98.4433 5.19998 97.4633 4.05998 95.6033 4.05998C93.7433 4.05998 92.7833 5.39998 92.4433 6.93998C92.3433 5.09998 91.3833 4.05998 89.6033 4.05998C87.7633 4.05998 86.8033 5.37998 86.4433 6.91998V4.25998H84.2033V14H86.4433Z" fill="#FF4D00"/>
</svg>
